<mxfile host="app.diagrams.net" agent="Mozilla/5.0 (Windows NT 10.0; Win64; x64) AppleWebKit/537.36 (KHTML, like Gecko) Chrome/129.0.0.0 Safari/537.36" version="24.7.17">
  <diagram name="Page-1" id="IXEkiJA7K9ahuZo-6t04">
    <mxGraphModel dx="1793" dy="980" grid="1" gridSize="10" guides="1" tooltips="1" connect="1" arrows="1" fold="1" page="1" pageScale="1" pageWidth="1100" pageHeight="850" background="none" math="0" shadow="0">
      <root>
        <mxCell id="0" />
        <mxCell id="1" parent="0" />
        <mxCell id="wQhMWK94Jkyffj1KBA8v-105" style="rounded=0;orthogonalLoop=1;jettySize=auto;html=1;exitX=1;exitY=1;exitDx=0;exitDy=0;exitPerimeter=0;entryX=0;entryY=0.5;entryDx=0;entryDy=0;fontFamily=Verdana;fontColor=#000000;endArrow=none;endFill=0;fillColor=#dae8fc;strokeColor=#6c8ebf;" parent="1" source="wQhMWK94Jkyffj1KBA8v-131" target="wQhMWK94Jkyffj1KBA8v-114" edge="1">
          <mxGeometry relative="1" as="geometry">
            <mxPoint x="1195" y="830" as="sourcePoint" />
          </mxGeometry>
        </mxCell>
        <mxCell id="wQhMWK94Jkyffj1KBA8v-106" style="rounded=0;orthogonalLoop=1;jettySize=auto;html=1;exitX=1;exitY=1;exitDx=0;exitDy=0;exitPerimeter=0;entryX=0;entryY=0.5;entryDx=0;entryDy=0;fontColor=#000000;fillColor=#dae8fc;strokeColor=#6c8ebf;endArrow=none;endFill=0;" parent="1" source="wQhMWK94Jkyffj1KBA8v-131" target="wQhMWK94Jkyffj1KBA8v-126" edge="1">
          <mxGeometry relative="1" as="geometry">
            <mxPoint x="1195" y="830" as="sourcePoint" />
          </mxGeometry>
        </mxCell>
        <mxCell id="wQhMWK94Jkyffj1KBA8v-108" style="rounded=0;orthogonalLoop=1;jettySize=auto;html=1;exitX=0.5;exitY=0.5;exitDx=0;exitDy=0;exitPerimeter=0;entryX=0;entryY=0.5;entryDx=0;entryDy=0;endArrow=none;endFill=0;fontColor=#000000;fillColor=#dae8fc;strokeColor=#6c8ebf;" parent="1" source="wQhMWK94Jkyffj1KBA8v-110" target="wQhMWK94Jkyffj1KBA8v-117" edge="1">
          <mxGeometry relative="1" as="geometry" />
        </mxCell>
        <mxCell id="wQhMWK94Jkyffj1KBA8v-109" style="rounded=0;orthogonalLoop=1;jettySize=auto;html=1;exitX=0.5;exitY=0.5;exitDx=0;exitDy=0;exitPerimeter=0;entryX=0;entryY=0.5;entryDx=0;entryDy=0;endArrow=none;endFill=0;fontColor=#000000;fillColor=#dae8fc;strokeColor=#6c8ebf;" parent="1" source="wQhMWK94Jkyffj1KBA8v-110" target="wQhMWK94Jkyffj1KBA8v-128" edge="1">
          <mxGeometry relative="1" as="geometry">
            <mxPoint x="290" y="1471.8783333333333" as="targetPoint" />
          </mxGeometry>
        </mxCell>
        <mxCell id="wQhMWK94Jkyffj1KBA8v-110" value="Clan Admins&lt;div&gt;&lt;br&gt;&lt;/div&gt;" style="shape=umlActor;verticalLabelPosition=bottom;verticalAlign=top;html=1;outlineConnect=0;fontFamily=Verdana;fillColor=#dae8fc;strokeColor=#6c8ebf;" parent="1" vertex="1">
          <mxGeometry x="180" y="1330" width="30" height="60" as="geometry" />
        </mxCell>
        <mxCell id="wQhMWK94Jkyffj1KBA8v-111" value="&lt;p style=&quot;margin: 0px 0px 0px 21px; text-indent: -21px; font-style: normal; font-variant: normal; font-stretch: normal; font-size: 14px; line-height: normal; font-size-adjust: none; font-kerning: auto; font-feature-settings: normal; font-optical-sizing: auto; font-variation-settings: normal;&quot;&gt;&lt;b&gt;Request Troops&lt;/b&gt;&lt;/p&gt;" style="ellipse;whiteSpace=wrap;html=1;fontFamily=Verdana;fillColor=#dae8fc;strokeColor=#6c8ebf;" parent="1" vertex="1">
          <mxGeometry x="1250" y="960" width="140" height="70" as="geometry" />
        </mxCell>
        <mxCell id="wQhMWK94Jkyffj1KBA8v-112" value="&lt;p style=&quot;margin: 0px 0px 0px 21px; text-indent: -21px; font-style: normal; font-variant: normal; font-stretch: normal; font-size: 14px; line-height: normal; font-size-adjust: none; font-kerning: auto; font-feature-settings: normal; font-optical-sizing: auto; font-variation-settings: normal;&quot;&gt;&lt;b&gt;Chat&lt;/b&gt;&lt;/p&gt;" style="ellipse;whiteSpace=wrap;html=1;fontFamily=Verdana;fillColor=#dae8fc;strokeColor=#6c8ebf;" parent="1" vertex="1">
          <mxGeometry x="990" y="1040" width="140" height="70" as="geometry" />
        </mxCell>
        <mxCell id="wQhMWK94Jkyffj1KBA8v-113" value="&lt;p style=&quot;margin: 0px 0px 0px 21px; text-indent: -21px; font-style: normal; font-variant: normal; font-stretch: normal; font-size: 14px; line-height: normal; font-size-adjust: none; font-kerning: auto; font-feature-settings: normal; font-optical-sizing: auto; font-variation-settings: normal;&quot;&gt;&lt;b&gt;Donate Troops&lt;/b&gt;&lt;/p&gt;" style="ellipse;whiteSpace=wrap;html=1;fontFamily=Verdana;fillColor=#dae8fc;strokeColor=#6c8ebf;" parent="1" vertex="1">
          <mxGeometry x="1250" y="1045" width="140" height="70" as="geometry" />
        </mxCell>
        <mxCell id="wQhMWK94Jkyffj1KBA8v-114" value="&lt;p style=&quot;margin: 0px 0px 0px 21px; text-indent: -21px; font-style: normal; font-variant: normal; font-stretch: normal; font-size: 14px; line-height: normal; font-size-adjust: none; font-kerning: auto; font-feature-settings: normal; font-optical-sizing: auto; font-variation-settings: normal;&quot;&gt;&lt;b&gt;Clan&lt;/b&gt;&lt;/p&gt;" style="ellipse;whiteSpace=wrap;html=1;fontFamily=Verdana;fillColor=#dae8fc;strokeColor=#6c8ebf;" parent="1" vertex="1">
          <mxGeometry x="490" y="1215" width="140" height="70" as="geometry" />
        </mxCell>
        <mxCell id="wQhMWK94Jkyffj1KBA8v-115" value="&amp;lt;&amp;lt;include&amp;gt;&amp;gt;" style="html=1;verticalAlign=bottom;labelBackgroundColor=none;endArrow=open;endFill=0;dashed=1;rounded=0;entryX=0;entryY=0.5;entryDx=0;entryDy=0;exitX=1;exitY=0.5;exitDx=0;exitDy=0;fontFamily=Verdana;fontColor=#000000;fillColor=#dae8fc;strokeColor=#6c8ebf;" parent="1" source="wQhMWK94Jkyffj1KBA8v-114" target="wQhMWK94Jkyffj1KBA8v-112" edge="1">
          <mxGeometry width="160" relative="1" as="geometry">
            <mxPoint x="790" y="1251.5" as="sourcePoint" />
            <mxPoint x="950" y="1251.5" as="targetPoint" />
          </mxGeometry>
        </mxCell>
        <mxCell id="wQhMWK94Jkyffj1KBA8v-116" value="&amp;lt;&amp;lt;include&amp;gt;&amp;gt;" style="html=1;verticalAlign=bottom;labelBackgroundColor=none;endArrow=open;endFill=0;dashed=1;rounded=0;entryX=0;entryY=0.5;entryDx=0;entryDy=0;exitX=1;exitY=0.5;exitDx=0;exitDy=0;fontFamily=Verdana;fontColor=#000000;fillColor=#dae8fc;strokeColor=#6c8ebf;" parent="1" source="wQhMWK94Jkyffj1KBA8v-112" target="wQhMWK94Jkyffj1KBA8v-111" edge="1">
          <mxGeometry width="160" relative="1" as="geometry">
            <mxPoint x="1060" y="1214.5" as="sourcePoint" />
            <mxPoint x="1250" y="1000" as="targetPoint" />
          </mxGeometry>
        </mxCell>
        <mxCell id="wQhMWK94Jkyffj1KBA8v-117" value="&lt;p style=&quot;margin: 0px 0px 0px 21px; text-indent: -21px; font-style: normal; font-variant: normal; font-stretch: normal; font-size: 14px; line-height: normal; font-size-adjust: none; font-kerning: auto; font-feature-settings: normal; font-optical-sizing: auto; font-variation-settings: normal;&quot;&gt;&lt;b&gt;Mange Clan&lt;/b&gt;&lt;/p&gt;" style="ellipse;whiteSpace=wrap;html=1;fontFamily=Verdana;fillColor=#dae8fc;strokeColor=#6c8ebf;" parent="1" vertex="1">
          <mxGeometry x="340" y="1290" width="140" height="70" as="geometry" />
        </mxCell>
        <mxCell id="wQhMWK94Jkyffj1KBA8v-118" value="" style="endArrow=block;endSize=16;endFill=0;html=1;rounded=0;exitX=0.5;exitY=0;exitDx=0;exitDy=0;exitPerimeter=0;fontColor=#000000;fillColor=#dae8fc;strokeColor=#6c8ebf;entryX=0.503;entryY=0.753;entryDx=0;entryDy=0;entryPerimeter=0;" parent="1" source="wQhMWK94Jkyffj1KBA8v-110" target="wQhMWK94Jkyffj1KBA8v-131" edge="1">
          <mxGeometry width="160" relative="1" as="geometry">
            <mxPoint x="274.54999999999995" y="1100" as="sourcePoint" />
            <mxPoint x="274.54999999999995" y="890" as="targetPoint" />
          </mxGeometry>
        </mxCell>
        <mxCell id="wQhMWK94Jkyffj1KBA8v-119" value="&amp;lt;&amp;lt;include&amp;gt;&amp;gt;" style="html=1;verticalAlign=bottom;labelBackgroundColor=none;endArrow=open;endFill=0;dashed=1;rounded=0;exitX=1.018;exitY=0.601;exitDx=0;exitDy=0;fontFamily=Verdana;fontColor=#000000;exitPerimeter=0;entryX=0;entryY=0.5;entryDx=0;entryDy=0;fillColor=#dae8fc;strokeColor=#6c8ebf;" parent="1" source="wQhMWK94Jkyffj1KBA8v-112" target="wQhMWK94Jkyffj1KBA8v-113" edge="1">
          <mxGeometry width="160" relative="1" as="geometry">
            <mxPoint x="1140" y="1155" as="sourcePoint" />
            <mxPoint x="1210" y="1175" as="targetPoint" />
          </mxGeometry>
        </mxCell>
        <mxCell id="wQhMWK94Jkyffj1KBA8v-120" value="&lt;p style=&quot;margin: 0px 0px 0px 21px; text-indent: -21px; font-style: normal; font-variant: normal; font-stretch: normal; font-size: 14px; line-height: normal; font-size-adjust: none; font-kerning: auto; font-feature-settings: normal; font-optical-sizing: auto; font-variation-settings: normal;&quot;&gt;&lt;b&gt;Friendly Battle&lt;/b&gt;&lt;/p&gt;" style="ellipse;whiteSpace=wrap;html=1;fontFamily=Verdana;fillColor=#dae8fc;strokeColor=#6c8ebf;" parent="1" vertex="1">
          <mxGeometry x="1250" y="1125" width="140" height="70" as="geometry" />
        </mxCell>
        <mxCell id="wQhMWK94Jkyffj1KBA8v-121" style="rounded=0;orthogonalLoop=1;jettySize=auto;html=1;exitX=0.5;exitY=0.5;exitDx=0;exitDy=0;exitPerimeter=0;entryX=0.5;entryY=0;entryDx=0;entryDy=0;endArrow=none;endFill=0;fontColor=#000000;fillColor=#dae8fc;strokeColor=#6c8ebf;" parent="1" source="wQhMWK94Jkyffj1KBA8v-140" target="wQhMWK94Jkyffj1KBA8v-114" edge="1">
          <mxGeometry relative="1" as="geometry">
            <mxPoint x="825" y="1001.5" as="sourcePoint" />
          </mxGeometry>
        </mxCell>
        <mxCell id="wQhMWK94Jkyffj1KBA8v-123" value="&lt;p style=&quot;margin: 0px 0px 0px 21px; text-indent: -21px; font-variant-numeric: normal; font-variant-east-asian: normal; font-variant-alternates: normal; font-variant-position: normal; font-stretch: normal; line-height: normal; font-size-adjust: none; font-kerning: auto; font-feature-settings: normal; font-optical-sizing: auto; font-variation-settings: normal;&quot;&gt;&lt;span style=&quot;font-size: 14px;&quot;&gt;&lt;b&gt;War&lt;/b&gt;&lt;/span&gt;&lt;/p&gt;" style="ellipse;whiteSpace=wrap;html=1;fontFamily=Verdana;fillColor=#dae8fc;strokeColor=#6c8ebf;" parent="1" vertex="1">
          <mxGeometry x="1005" y="1170" width="110" height="70" as="geometry" />
        </mxCell>
        <mxCell id="wQhMWK94Jkyffj1KBA8v-124" value="&amp;lt;&amp;lt;include&amp;gt;&amp;gt;" style="html=1;verticalAlign=bottom;labelBackgroundColor=none;endArrow=open;endFill=0;dashed=1;rounded=0;exitX=1.009;exitY=0.632;exitDx=0;exitDy=0;fontFamily=Verdana;fontColor=#000000;exitPerimeter=0;entryX=0;entryY=0.5;entryDx=0;entryDy=0;fillColor=#dae8fc;strokeColor=#6c8ebf;" parent="1" source="wQhMWK94Jkyffj1KBA8v-112" target="wQhMWK94Jkyffj1KBA8v-120" edge="1">
          <mxGeometry width="160" relative="1" as="geometry">
            <mxPoint x="1143" y="1092" as="sourcePoint" />
            <mxPoint x="1240" y="1060" as="targetPoint" />
          </mxGeometry>
        </mxCell>
        <mxCell id="wQhMWK94Jkyffj1KBA8v-125" value="&amp;lt;&amp;lt;include&amp;gt;&amp;gt;" style="html=1;verticalAlign=bottom;labelBackgroundColor=none;endArrow=open;endFill=0;dashed=1;rounded=0;entryX=0;entryY=0.5;entryDx=0;entryDy=0;fontFamily=Verdana;fontColor=#000000;exitX=1;exitY=0.5;exitDx=0;exitDy=0;fillColor=#dae8fc;strokeColor=#6c8ebf;" parent="1" source="wQhMWK94Jkyffj1KBA8v-114" target="wQhMWK94Jkyffj1KBA8v-123" edge="1">
          <mxGeometry width="160" relative="1" as="geometry">
            <mxPoint x="720" y="1211.5" as="sourcePoint" />
            <mxPoint x="810" y="1101.5" as="targetPoint" />
          </mxGeometry>
        </mxCell>
        <mxCell id="wQhMWK94Jkyffj1KBA8v-126" value="&lt;p style=&quot;margin: 0px 0px 0px 21px; text-indent: -21px; font-style: normal; font-variant: normal; font-stretch: normal; font-size: 14px; line-height: normal; font-size-adjust: none; font-kerning: auto; font-feature-settings: normal; font-optical-sizing: auto; font-variation-settings: normal;&quot;&gt;&lt;b&gt;Shop&lt;/b&gt;&lt;/p&gt;" style="ellipse;whiteSpace=wrap;html=1;fontFamily=Verdana;fillColor=#dae8fc;strokeColor=#6c8ebf;" parent="1" vertex="1">
          <mxGeometry x="490" y="1110" width="140" height="70" as="geometry" />
        </mxCell>
        <mxCell id="wQhMWK94Jkyffj1KBA8v-127" style="rounded=0;orthogonalLoop=1;jettySize=auto;html=1;exitX=1;exitY=0.5;exitDx=0;exitDy=0;entryX=0.5;entryY=0.5;entryDx=0;entryDy=0;entryPerimeter=0;endArrow=none;endFill=0;fontColor=#000000;fillColor=#dae8fc;strokeColor=#6c8ebf;" parent="1" source="wQhMWK94Jkyffj1KBA8v-126" target="wQhMWK94Jkyffj1KBA8v-140" edge="1">
          <mxGeometry relative="1" as="geometry">
            <mxPoint x="825" y="1001.5" as="targetPoint" />
          </mxGeometry>
        </mxCell>
        <mxCell id="wQhMWK94Jkyffj1KBA8v-128" value="&lt;p style=&quot;margin: 0px 0px 0px 21px; text-indent: -21px; font-style: normal; font-variant: normal; font-stretch: normal; font-size: 14px; line-height: normal; font-size-adjust: none; font-kerning: auto; font-feature-settings: normal; font-optical-sizing: auto; font-variation-settings: normal;&quot;&gt;&lt;b&gt;Declare War&lt;/b&gt;&lt;br&gt;&lt;/p&gt;" style="ellipse;whiteSpace=wrap;html=1;fontFamily=Verdana;fillColor=#dae8fc;strokeColor=#6c8ebf;" parent="1" vertex="1">
          <mxGeometry x="340" y="1390" width="140" height="70" as="geometry" />
        </mxCell>
        <mxCell id="Cy0Z0tTT4uItgRa5O-bQ-45" style="rounded=0;orthogonalLoop=1;jettySize=auto;html=1;exitX=0.5;exitY=0.5;exitDx=0;exitDy=0;exitPerimeter=0;entryX=0.006;entryY=0.479;entryDx=0;entryDy=0;entryPerimeter=0;endArrow=none;endFill=0;fillColor=#d5e8d4;strokeColor=#82b366;" edge="1" parent="1" source="wQhMWK94Jkyffj1KBA8v-131" target="Cy0Z0tTT4uItgRa5O-bQ-34">
          <mxGeometry relative="1" as="geometry" />
        </mxCell>
        <mxCell id="wQhMWK94Jkyffj1KBA8v-131" value="Player" style="shape=umlActor;verticalLabelPosition=top;verticalAlign=bottom;html=1;fillColor=#6a00ff;labelBackgroundColor=none;labelPosition=center;align=center;strokeColor=#3700CC;fontColor=#660066;" parent="1" vertex="1">
          <mxGeometry x="260" y="820" width="30" height="60" as="geometry" />
        </mxCell>
        <mxCell id="Cy0Z0tTT4uItgRa5O-bQ-43" style="rounded=0;orthogonalLoop=1;jettySize=auto;html=1;exitX=0.5;exitY=0.5;exitDx=0;exitDy=0;exitPerimeter=0;endArrow=none;endFill=0;entryX=1;entryY=0.5;entryDx=0;entryDy=0;fillColor=#d5e8d4;strokeColor=#82b366;" edge="1" parent="1" source="wQhMWK94Jkyffj1KBA8v-140" target="Cy0Z0tTT4uItgRa5O-bQ-28">
          <mxGeometry relative="1" as="geometry">
            <mxPoint x="1100" y="460" as="targetPoint" />
          </mxGeometry>
        </mxCell>
        <mxCell id="Cy0Z0tTT4uItgRa5O-bQ-44" style="rounded=0;orthogonalLoop=1;jettySize=auto;html=1;exitX=0.5;exitY=0.5;exitDx=0;exitDy=0;exitPerimeter=0;entryX=1;entryY=0.5;entryDx=0;entryDy=0;endArrow=none;endFill=0;fillColor=#d5e8d4;strokeColor=#82b366;" edge="1" parent="1" source="wQhMWK94Jkyffj1KBA8v-140" target="Cy0Z0tTT4uItgRa5O-bQ-29">
          <mxGeometry relative="1" as="geometry" />
        </mxCell>
        <mxCell id="Cy0Z0tTT4uItgRa5O-bQ-46" style="rounded=0;orthogonalLoop=1;jettySize=auto;html=1;exitX=0.5;exitY=0.5;exitDx=0;exitDy=0;exitPerimeter=0;entryX=1;entryY=0.5;entryDx=0;entryDy=0;endArrow=none;endFill=0;fillColor=#d5e8d4;strokeColor=#82b366;" edge="1" parent="1" source="wQhMWK94Jkyffj1KBA8v-140" target="Cy0Z0tTT4uItgRa5O-bQ-34">
          <mxGeometry relative="1" as="geometry" />
        </mxCell>
        <mxCell id="wQhMWK94Jkyffj1KBA8v-140" value="Database" style="shape=umlActor;verticalLabelPosition=bottom;verticalAlign=top;html=1;fillColor=#6a00ff;strokeColor=#3700CC;labelBackgroundColor=none;fontColor=#660066;" parent="1" vertex="1">
          <mxGeometry x="1330" y="842.5" width="30" height="60" as="geometry" />
        </mxCell>
        <mxCell id="Cy0Z0tTT4uItgRa5O-bQ-1" style="edgeStyle=none;rounded=0;orthogonalLoop=1;jettySize=auto;html=1;exitX=0.5;exitY=0.5;exitDx=0;exitDy=0;exitPerimeter=0;entryX=0;entryY=0.5;entryDx=0;entryDy=0;endArrow=none;endFill=0;fillColor=#fad9d5;strokeColor=#ae4132;" edge="1" parent="1" source="wQhMWK94Jkyffj1KBA8v-131" target="Cy0Z0tTT4uItgRa5O-bQ-7">
          <mxGeometry relative="1" as="geometry">
            <mxPoint x="455" y="795" as="sourcePoint" />
          </mxGeometry>
        </mxCell>
        <mxCell id="Cy0Z0tTT4uItgRa5O-bQ-2" style="edgeStyle=none;rounded=0;orthogonalLoop=1;jettySize=auto;html=1;exitX=0.5;exitY=0.5;exitDx=0;exitDy=0;exitPerimeter=0;entryX=0;entryY=0.5;entryDx=0;entryDy=0;endArrow=none;endFill=0;fillColor=#fad9d5;strokeColor=#ae4132;" edge="1" parent="1" source="wQhMWK94Jkyffj1KBA8v-131" target="Cy0Z0tTT4uItgRa5O-bQ-6">
          <mxGeometry relative="1" as="geometry">
            <mxPoint x="455" y="795" as="sourcePoint" />
          </mxGeometry>
        </mxCell>
        <mxCell id="Cy0Z0tTT4uItgRa5O-bQ-3" style="edgeStyle=none;rounded=0;orthogonalLoop=1;jettySize=auto;html=1;exitX=0.5;exitY=0.5;exitDx=0;exitDy=0;exitPerimeter=0;entryX=0;entryY=0.5;entryDx=0;entryDy=0;endArrow=none;endFill=0;fillColor=#fad9d5;strokeColor=#ae4132;" edge="1" parent="1" source="wQhMWK94Jkyffj1KBA8v-131" target="Cy0Z0tTT4uItgRa5O-bQ-12">
          <mxGeometry relative="1" as="geometry">
            <mxPoint x="455" y="795" as="sourcePoint" />
          </mxGeometry>
        </mxCell>
        <mxCell id="Cy0Z0tTT4uItgRa5O-bQ-6" value="Attack Planning" style="ellipse;whiteSpace=wrap;html=1;fillColor=#f8cecc;strokeColor=#b85450;" vertex="1" parent="1">
          <mxGeometry x="725" y="737.5" width="120" height="55" as="geometry" />
        </mxCell>
        <mxCell id="Cy0Z0tTT4uItgRa5O-bQ-7" value="Save / View&amp;nbsp;&lt;span style=&quot;background-color: initial;&quot;&gt;Logs&lt;/span&gt;" style="ellipse;whiteSpace=wrap;html=1;fillColor=#f8cecc;strokeColor=#b85450;" vertex="1" parent="1">
          <mxGeometry x="725" y="670" width="120" height="55" as="geometry" />
        </mxCell>
        <mxCell id="Cy0Z0tTT4uItgRa5O-bQ-26" style="rounded=0;orthogonalLoop=1;jettySize=auto;html=1;exitX=0.5;exitY=0.5;exitDx=0;exitDy=0;exitPerimeter=0;entryX=0;entryY=0.5;entryDx=0;entryDy=0;fillColor=#f8cecc;strokeColor=#b85450;endArrow=none;endFill=0;" edge="1" parent="1" source="Cy0Z0tTT4uItgRa5O-bQ-9" target="Cy0Z0tTT4uItgRa5O-bQ-12">
          <mxGeometry relative="1" as="geometry" />
        </mxCell>
        <mxCell id="Cy0Z0tTT4uItgRa5O-bQ-9" value="Timer" style="shape=umlActor;verticalLabelPosition=bottom;verticalAlign=top;html=1;fillColor=#f8cecc;strokeColor=#b85450;gradientColor=#ea6b66;labelBackgroundColor=none;" vertex="1" parent="1">
          <mxGeometry x="395" y="925" width="30" height="60" as="geometry" />
        </mxCell>
        <mxCell id="Cy0Z0tTT4uItgRa5O-bQ-10" value="Defense by buildings &amp;amp; heroes" style="ellipse;whiteSpace=wrap;html=1;fillColor=#f8cecc;strokeColor=#b85450;" vertex="1" parent="1">
          <mxGeometry x="870" y="890" width="110" height="70" as="geometry" />
        </mxCell>
        <mxCell id="Cy0Z0tTT4uItgRa5O-bQ-11" value="&amp;lt;&amp;lt;extend&amp;gt;&amp;gt;" style="html=1;verticalAlign=top;labelBackgroundColor=none;endArrow=open;endFill=0;dashed=1;rounded=0;exitX=0;exitY=0.5;exitDx=0;exitDy=0;entryX=1;entryY=0.5;entryDx=0;entryDy=0;labelPosition=center;verticalLabelPosition=bottom;align=center;fillColor=#f8cecc;strokeColor=#b85450;" edge="1" parent="1" source="Cy0Z0tTT4uItgRa5O-bQ-10" target="Cy0Z0tTT4uItgRa5O-bQ-12">
          <mxGeometry width="160" relative="1" as="geometry">
            <mxPoint x="1020" y="917.5" as="sourcePoint" />
            <mxPoint x="1180" y="917.5" as="targetPoint" />
          </mxGeometry>
        </mxCell>
        <mxCell id="Cy0Z0tTT4uItgRa5O-bQ-12" value="" style="shape=ellipse;container=1;horizontal=1;horizontalStack=0;resizeParent=1;resizeParentMax=0;resizeLast=0;html=1;dashed=0;collapsible=0;fillColor=#f8cecc;strokeColor=#b85450;" vertex="1" parent="1">
          <mxGeometry x="610" y="827.5" width="180" height="120" as="geometry" />
        </mxCell>
        <mxCell id="Cy0Z0tTT4uItgRa5O-bQ-13" value="Execute Attack" style="html=1;align=center;verticalAlign=bottom;rotatable=0;whiteSpace=wrap;fillColor=none;strokeColor=none;" vertex="1" parent="Cy0Z0tTT4uItgRa5O-bQ-12">
          <mxGeometry width="180" height="30" as="geometry" />
        </mxCell>
        <mxCell id="Cy0Z0tTT4uItgRa5O-bQ-14" value="" style="line;strokeWidth=1;fillColor=#f8cecc;rotatable=0;labelPosition=right;points=[];portConstraint=eastwest;dashed=0;resizeWidth=1;strokeColor=#b85450;" vertex="1" parent="Cy0Z0tTT4uItgRa5O-bQ-12">
          <mxGeometry x="9" y="30" width="162" height="10" as="geometry" />
        </mxCell>
        <mxCell id="Cy0Z0tTT4uItgRa5O-bQ-15" value="extension points" style="text;html=1;align=center;verticalAlign=bottom;rotatable=0;fillColor=none;whiteSpace=wrap;" vertex="1" parent="Cy0Z0tTT4uItgRa5O-bQ-12">
          <mxGeometry y="30" width="180" height="30" as="geometry" />
        </mxCell>
        <mxCell id="Cy0Z0tTT4uItgRa5O-bQ-16" value="&lt;div&gt;Defense against attackers&lt;/div&gt;&lt;div style=&quot;font-size: 4px;&quot;&gt;&lt;br&gt;&lt;/div&gt;&lt;div&gt;&lt;span style=&quot;background-color: initial;&quot;&gt;Select &amp;amp; Send&lt;/span&gt;&amp;nbsp;item&lt;br&gt;&lt;/div&gt;" style="text;html=1;align=center;verticalAlign=middle;rotatable=0;spacingLeft=25;fillColor=none;whiteSpace=wrap;" vertex="1" parent="Cy0Z0tTT4uItgRa5O-bQ-12">
          <mxGeometry x="-9" y="70" width="180" height="30" as="geometry" />
        </mxCell>
        <mxCell id="Cy0Z0tTT4uItgRa5O-bQ-17" value="Select &amp;amp; Send item to map" style="ellipse;whiteSpace=wrap;html=1;fillColor=#f8cecc;strokeColor=#b85450;" vertex="1" parent="1">
          <mxGeometry x="870" y="805" width="100" height="70" as="geometry" />
        </mxCell>
        <mxCell id="Cy0Z0tTT4uItgRa5O-bQ-18" value="&amp;lt;&amp;lt;extend&amp;gt;&amp;gt;" style="html=1;verticalAlign=bottom;labelBackgroundColor=none;endArrow=open;endFill=0;dashed=1;rounded=0;entryX=1;entryY=0.5;entryDx=0;entryDy=0;labelPosition=center;verticalLabelPosition=top;align=center;exitX=0;exitY=0.5;exitDx=0;exitDy=0;fillColor=#f8cecc;strokeColor=#b85450;" edge="1" parent="1" source="Cy0Z0tTT4uItgRa5O-bQ-17" target="Cy0Z0tTT4uItgRa5O-bQ-12">
          <mxGeometry x="-0.0003" width="160" relative="1" as="geometry">
            <mxPoint x="950" y="1027.5" as="sourcePoint" />
            <mxPoint x="990" y="957.5" as="targetPoint" />
            <mxPoint as="offset" />
          </mxGeometry>
        </mxCell>
        <mxCell id="Cy0Z0tTT4uItgRa5O-bQ-19" style="edgeStyle=none;rounded=0;orthogonalLoop=1;jettySize=auto;html=1;exitX=1;exitY=0.5;exitDx=0;exitDy=0;entryX=0.5;entryY=0.5;entryDx=0;entryDy=0;entryPerimeter=0;endArrow=none;endFill=0;fillColor=#fad9d5;strokeColor=#ae4132;" edge="1" parent="1" source="Cy0Z0tTT4uItgRa5O-bQ-7" target="wQhMWK94Jkyffj1KBA8v-140">
          <mxGeometry relative="1" as="geometry">
            <mxPoint x="1115.0000000000005" y="795" as="targetPoint" />
          </mxGeometry>
        </mxCell>
        <mxCell id="Cy0Z0tTT4uItgRa5O-bQ-20" style="edgeStyle=none;rounded=0;orthogonalLoop=1;jettySize=auto;html=1;exitX=1;exitY=0.5;exitDx=0;exitDy=0;entryX=0.5;entryY=0.5;entryDx=0;entryDy=0;entryPerimeter=0;endArrow=none;endFill=0;fillColor=#fad9d5;strokeColor=#ae4132;" edge="1" parent="1" source="Cy0Z0tTT4uItgRa5O-bQ-6" target="wQhMWK94Jkyffj1KBA8v-140">
          <mxGeometry relative="1" as="geometry">
            <mxPoint x="1115.0000000000005" y="795" as="targetPoint" />
          </mxGeometry>
        </mxCell>
        <mxCell id="Cy0Z0tTT4uItgRa5O-bQ-21" style="edgeStyle=none;rounded=0;orthogonalLoop=1;jettySize=auto;html=1;entryX=0.5;entryY=0.5;entryDx=0;entryDy=0;entryPerimeter=0;endArrow=none;endFill=0;fillColor=#fad9d5;strokeColor=#ae4132;exitX=1;exitY=1;exitDx=0;exitDy=0;" edge="1" parent="1" source="Cy0Z0tTT4uItgRa5O-bQ-15" target="wQhMWK94Jkyffj1KBA8v-140">
          <mxGeometry relative="1" as="geometry">
            <mxPoint x="1115.0000000000005" y="795" as="targetPoint" />
            <mxPoint x="820" y="850" as="sourcePoint" />
          </mxGeometry>
        </mxCell>
        <mxCell id="Cy0Z0tTT4uItgRa5O-bQ-22" style="edgeStyle=none;rounded=0;orthogonalLoop=1;jettySize=auto;html=1;exitX=1;exitY=0.5;exitDx=0;exitDy=0;entryX=0.5;entryY=0.5;entryDx=0;entryDy=0;entryPerimeter=0;endArrow=none;endFill=0;fillColor=#fad9d5;strokeColor=#ae4132;" edge="1" parent="1" source="Cy0Z0tTT4uItgRa5O-bQ-10" target="wQhMWK94Jkyffj1KBA8v-140">
          <mxGeometry relative="1" as="geometry">
            <mxPoint x="1115.0000000000005" y="795" as="targetPoint" />
          </mxGeometry>
        </mxCell>
        <mxCell id="Cy0Z0tTT4uItgRa5O-bQ-23" style="edgeStyle=none;rounded=0;orthogonalLoop=1;jettySize=auto;html=1;exitX=1;exitY=0.5;exitDx=0;exitDy=0;entryX=0.5;entryY=0.5;entryDx=0;entryDy=0;entryPerimeter=0;endArrow=none;endFill=0;fillColor=#fad9d5;strokeColor=#ae4132;" edge="1" parent="1" source="Cy0Z0tTT4uItgRa5O-bQ-17" target="wQhMWK94Jkyffj1KBA8v-140">
          <mxGeometry relative="1" as="geometry">
            <mxPoint x="1115.0000000000005" y="795" as="targetPoint" />
          </mxGeometry>
        </mxCell>
        <mxCell id="Cy0Z0tTT4uItgRa5O-bQ-28" value="&lt;b&gt;Order to the worker&lt;/b&gt;" style="ellipse;whiteSpace=wrap;html=1;fillColor=#d5e8d4;strokeColor=#82b366;" vertex="1" parent="1">
          <mxGeometry x="857" y="457" width="136" height="64" as="geometry" />
        </mxCell>
        <mxCell id="Cy0Z0tTT4uItgRa5O-bQ-29" value="&lt;b&gt;Layout of buildings&lt;/b&gt;" style="ellipse;whiteSpace=wrap;html=1;fillColor=#d5e8d4;strokeColor=#82b366;" vertex="1" parent="1">
          <mxGeometry x="858.5" y="536.5" width="133" height="77" as="geometry" />
        </mxCell>
        <mxCell id="Cy0Z0tTT4uItgRa5O-bQ-34" value="" style="ellipse;whiteSpace=wrap;html=1;fillColor=#d5e8d4;strokeColor=#82b366;" vertex="1" parent="1">
          <mxGeometry x="611" y="505" width="157" height="140" as="geometry" />
        </mxCell>
        <mxCell id="Cy0Z0tTT4uItgRa5O-bQ-40" value="&lt;b&gt;Update Map&lt;/b&gt;" style="text;align=center;fillColor=none;html=1;verticalAlign=middle;whiteSpace=wrap;rounded=0;" vertex="1" parent="1">
          <mxGeometry x="648.75" y="521" width="81.5" height="30" as="geometry" />
        </mxCell>
        <mxCell id="Cy0Z0tTT4uItgRa5O-bQ-41" value="" style="endArrow=none;html=1;rounded=0;entryX=0.949;entryY=0.306;entryDx=0;entryDy=0;entryPerimeter=0;exitX=0.036;exitY=0.311;exitDx=0;exitDy=0;exitPerimeter=0;fillColor=#d5e8d4;strokeColor=#82b366;" edge="1" parent="1" source="Cy0Z0tTT4uItgRa5O-bQ-34" target="Cy0Z0tTT4uItgRa5O-bQ-34">
          <mxGeometry width="50" height="50" relative="1" as="geometry">
            <mxPoint x="624" y="565" as="sourcePoint" />
            <mxPoint x="674" y="515" as="targetPoint" />
          </mxGeometry>
        </mxCell>
        <mxCell id="Cy0Z0tTT4uItgRa5O-bQ-42" value="&lt;b&gt;extendtion point&lt;/b&gt;&lt;div&gt;&lt;br&gt;&lt;div&gt;building a buildings&lt;/div&gt;&lt;div&gt;layout of buildings&amp;nbsp;&lt;/div&gt;&lt;/div&gt;" style="text;align=center;fillColor=none;html=1;verticalAlign=middle;whiteSpace=wrap;rounded=0;" vertex="1" parent="1">
          <mxGeometry x="611" y="578.5" width="160" height="30" as="geometry" />
        </mxCell>
        <mxCell id="Cy0Z0tTT4uItgRa5O-bQ-48" value="&amp;lt;&amp;lt;extend&amp;gt;&amp;gt;" style="html=1;verticalAlign=bottom;labelBackgroundColor=none;endArrow=open;endFill=0;dashed=1;rounded=0;entryX=1;entryY=0.5;entryDx=0;entryDy=0;labelPosition=center;verticalLabelPosition=top;align=center;exitX=0;exitY=0.5;exitDx=0;exitDy=0;fillColor=#d5e8d4;strokeColor=#82b366;" edge="1" parent="1" source="Cy0Z0tTT4uItgRa5O-bQ-28" target="Cy0Z0tTT4uItgRa5O-bQ-34">
          <mxGeometry x="-0.0003" width="160" relative="1" as="geometry">
            <mxPoint x="810.25" y="405" as="sourcePoint" />
            <mxPoint x="730.25" y="453" as="targetPoint" />
            <mxPoint as="offset" />
          </mxGeometry>
        </mxCell>
        <mxCell id="Cy0Z0tTT4uItgRa5O-bQ-49" value="&amp;lt;&amp;lt;extend&amp;gt;&amp;gt;" style="html=1;verticalAlign=bottom;labelBackgroundColor=none;endArrow=open;endFill=0;dashed=1;rounded=0;labelPosition=center;verticalLabelPosition=top;align=center;exitX=0;exitY=0.5;exitDx=0;exitDy=0;fillColor=#d5e8d4;strokeColor=#82b366;" edge="1" parent="1" source="Cy0Z0tTT4uItgRa5O-bQ-29">
          <mxGeometry x="-0.0003" width="160" relative="1" as="geometry">
            <mxPoint x="864" y="467" as="sourcePoint" />
            <mxPoint x="764" y="575" as="targetPoint" />
            <mxPoint as="offset" />
          </mxGeometry>
        </mxCell>
      </root>
    </mxGraphModel>
  </diagram>
</mxfile>
